0
SECTION
2
HEADER
9
$INSUNITS
70
4
9
$ACADVER
1
AC1014
9
$HANDSEED
5
FFFF
0
ENDSEC
0
SECTION
2
TABLES
0
TABLE
2
VPORT
5
8
100
AcDbSymbolTable
0
ENDTAB
0
TABLE
2
LTYPE
5
5
100
AcDbSymbolTable
0
LTYPE
5
14
100
AcDbSymbolTableRecord
100
AcDbLinetypeTableRecord
2
BYBLOCK
70
0
0
LTYPE
5
15
100
AcDbSymbolTableRecord
100
AcDbLinetypeTableRecord
2
BYLAYER
70
0
0
ENDTAB
0
TABLE
2
LAYER
5
2
100
AcDbSymbolTable
70
2
0
LAYER
5
50
100
AcDbSymbolTableRecord
100
AcDbLayerTableRecord
2
0
70
0
6
CONTINUOUS
0
ENDTAB
0
TABLE
2
STYLE
5
3
100
AcDbSymbolTable
70
1
0
STYLE
5
11
100
AcDbSymbolTableRecord
100
AcDbTextStyleTableRecord
2
STANDARD
70
0
0
ENDTAB
0
TABLE
2
VIEW
5
6
100
AcDbSymbolTable
70
0
0
ENDTAB
0
TABLE
2
UCS
5
7
100
AcDbSymbolTable
70
0
0
ENDTAB
0
TABLE
2
APPID
5
9
100
AcDbSymbolTable
70
2
0
APPID
5
12
100
AcDbSymbolTableRecord
100
AcDbRegAppTableRecord
2
ACAD
70
0
0
ENDTAB
0
TABLE
2
DIMSTYLE
5
A
100
AcDbSymbolTable
70
1
0
ENDTAB
0
TABLE
2
BLOCK_RECORD
5
1
100
AcDbSymbolTable
70
1
0
BLOCK_RECORD
5
1F
100
AcDbSymbolTableRecord
100
AcDbBlockTableRecord
2
*MODEL_SPACE
0
BLOCK_RECORD
5
1B
100
AcDbSymbolTableRecord
100
AcDbBlockTableRecord
2
*PAPER_SPACE
0
ENDTAB
0
ENDSEC
0
SECTION
2
BLOCKS
0
BLOCK
5
20
100
AcDbEntity
100
AcDbBlockBegin
2
*MODEL_SPACE
0
ENDBLK
5
21
100
AcDbEntity
100
AcDbBlockEnd
0
BLOCK
5
1C
100
AcDbEntity
100
AcDbBlockBegin
2
*PAPER_SPACE
0
ENDBLK
5
1D
100
AcDbEntity
100
AcDbBlockEnd
0
ENDSEC
0
SECTION
2
ENTITIES
0
LWPOLYLINE
5
100
100
AcDbEntity
8
0
100
AcDbPolyline
90
8
70
1
43
0.0
10
210.51875056466764
20
-46.109492765649605
42
-0.4142135623730378
10
210.01875056466761
20
-46.609492765649591
10
197.01875056466761
20
-46.60949276564962
42
-0.4142135623731939
10
196.51875056466764
20
-46.109492765649605
10
196.51875056466764
20
-33.109492765649605
42
-0.41421356237306639
10
197.01875056466761
20
-32.609492765649613
10
210.01875056466761
20
-32.609492765649584
42
-0.41421356237301699
10
210.5187505646677
20
-33.109492765649605
0
LWPOLYLINE
5
101
100
AcDbEntity
8
0
100
AcDbPolyline
90
14
70
1
43
0.0
10
176.67450056466762
20
-86.709492765649628
10
182.67450056466765
20
-86.709492765649628
42
0.41421356237295975
10
183.1745005646676
20
-86.209492765649586
10
183.17450056466765
20
-84.709492765649642
10
198.11250056466761
20
-84.709492765649642
42
0.41421356237298057
10
198.61250056466758
20
-84.209492765649628
10
198.61250056466761
20
-71.2094927656496
42
0.41421356237313667
10
198.11250056466761
20
-70.7094927656496
10
175.58750056466766
20
-70.709492765649628
42
0.41421356237315227
10
175.08750056466766
20
-71.2094927656496
10
175.08750056466766
20
-84.209492765649628
42
0.41421356237315748
10
175.58750056466766
20
-84.7094927656496
10
176.17450056466762
20
-84.7094927656496
10
176.17450056466762
20
-86.209492765649586
42
0.41421356237312623
0
LWPOLYLINE
5
102
100
AcDbEntity
8
0
100
AcDbPolyline
90
8
70
1
43
0.0
10
211.3130005646677
20
-65.659492765649631
10
205.31300056466773
20
-65.659492765649617
42
-0.41421356237315227
10
204.81300056466773
20
-65.159492765649659
10
204.81300056466773
20
-50.159492765649603
42
-0.41421356237304302
10
205.31300056466768
20
-49.659492765649645
10
211.3130005646677
20
-49.659492765649567
42
-0.41421356237310025
10
211.8130005646677
20
-50.159492765649603
10
211.8130005646677
20
-65.159492765649659
42
-0.41421356237304818
0
LWPOLYLINE
5
103
100
AcDbEntity
8
0
100
AcDbPolyline
90
8
70
1
43
0.0
10
203.37500056466766
20
-65.159492765649617
42
-0.41421356237303258
10
202.87500056466772
20
-65.659492765649588
10
189.87500056466772
20
-65.659492765649617
42
-0.4142135623730222
10
189.37500056466774
20
-65.159492765649617
10
189.37500056466772
20
-52.159492765649603
42
-0.4142135623730378
10
189.87500056466772
20
-51.659492765649624
10
202.87500056466772
20
-51.659492765649595
42
-0.41421356237314705
10
203.37500056466774
20
-52.159492765649603
0
LWPOLYLINE
5
104
100
AcDbEntity
8
0
100
AcDbPolyline
90
8
70
1
43
0.0
10
201.28125056466772
20
-27.059492765649612
10
201.28125056466772
20
-14.059492765649606
42
-0.41421356237301571
10
201.78125056466772
20
-13.559492765649592
10
214.78125056466774
20
-13.559492765649601
42
-0.41421356237313145
10
215.28125056466774
20
-14.059492765649599
10
215.28125056466774
20
-27.059492765649601
42
-0.41421356237304818
10
214.78125056466774
20
-27.559492765649601
10
201.78125056466772
20
-27.55949276564959
42
-0.41421356237316009
0
LWPOLYLINE
5
105
100
AcDbEntity
8
0
100
AcDbPolyline
90
8
70
1
43
0.0
10
81.431250564667593
20
-103.7594927656496
10
68.431250564667621
20
-103.7594927656496
42
-0.41421356237304818
10
67.931250564667607
20
-103.25949276564964
10
67.931250564667621
20
-90.259492765649583
42
-0.41421356237312101
10
68.431250564667621
20
-89.759492765649597
10
81.431250564667593
20
-89.759492765649625
42
-0.41421356237307422
10
81.931250564667621
20
-90.259492765649583
10
81.931250564667621
20
-103.25949276564964
42
-0.41421356237307422
0
LWPOLYLINE
5
106
100
AcDbEntity
8
0
100
AcDbPolyline
90
8
70
1
43
0.0
10
-31.074499435332399
20
-86.209492765649628
42
-0.41421356237306123
10
-31.57449943533241
20
-86.709492765649614
10
-37.574499435332406
20
-86.709492765649628
42
-0.41421356237305862
10
-38.074499435332406
20
-86.209492765649642
10
-38.074499435332399
20
-71.209492765649628
42
-0.41421356237308982
10
-37.574499435332406
20
-70.709492765649628
10
-31.57449943533241
20
-70.709492765649628
42
-0.41421356237310542
10
-31.074499435332413
20
-71.209492765649628
0
LWPOLYLINE
5
107
100
AcDbEntity
8
0
100
AcDbPolyline
90
8
70
1
43
0.0
10
-54.950499435332425
20
-86.209492765649628
42
-0.41421356237305862
10
-55.450499435332432
20
-86.709492765649614
10
-61.450499435332411
20
-86.709492765649628
42
-0.41421356237307422
10
-61.950499435332418
20
-86.209492765649628
10
-61.950499435332411
20
-71.209492765649685
42
-0.41421356237308982
10
-61.450499435332411
20
-70.709492765649671
10
-55.450499435332404
20
-70.709492765649671
42
-0.41421356237309503
10
-54.950499435332425
20
-71.209492765649657
0
LWPOLYLINE
5
108
100
AcDbEntity
8
0
100
AcDbPolyline
90
8
70
1
43
0.0
10
-53.512499435332401
20
-84.209492765649628
10
-53.512499435332401
20
-71.209492765649628
42
-0.41421356237310542
10
-53.01249943533243
20
-70.709492765649628
10
-40.012499435332415
20
-70.709492765649628
42
-0.41421356237310025
10
-39.512499435332423
20
-71.209492765649628
10
-39.512499435332415
20
-84.209492765649628
42
-0.41421356237307422
10
-40.012499435332415
20
-84.709492765649642
10
-53.01249943533243
20
-84.709492765649642
42
-0.41421356237308982
0
LWPOLYLINE
5
109
100
AcDbEntity
8
0
100
AcDbPolyline
90
36
70
1
43
0.0
10
-67.512823272639253
20
-106.56343428142179
42
-0.24275095133550934
10
-66.882199619917529
20
-107.78580276602413
10
-66.882199597761371
20
-109.25315170596519
42
0.41421355800998999
10
-64.882199540208063
20
-111.25315173370696
10
12.767800467331298
20
-111.25315173334999
42
0.41421356237325729
10
14.767800524697499
20
-109.25315167598491
10
14.767800524698307
20
-107.75316618098671
42
-0.41421362239065185
10
16.267800832067412
20
-106.25316618098672
10
133.59470071715879
20
-106.25319022276274
42
-0.41421350235540771
10
135.09470040978965
20
-107.753190222762
10
135.09470040979045
20
-109.2531515992723
42
0.41421356237310281
10
137.09470046733543
20
-111.25315165681533
10
214.74470046734291
20
-111.25315165645837
42
0.41421356237173967
10
216.744700524699
20
-109.25315159909306
10
216.74470052470048
20
-107.78586108182536
42
-0.24275098417053964
10
217.37532431081945
20
-106.56349247999621
42
0.24275098417055027
10
217.80625056466732
20
-105.72820726874626
10
217.80625064160091
20
-12.059433879977579
42
0.24275098373569634
10
217.3753243891251
20
-11.224148669703496
42
-0.24275098373567416
10
216.74470060501415
20
-10.001780069302447
10
216.74470062203602
20
-8.5344889667835453
42
0.41421356243116109
10
214.74470053447209
20
-6.5344889392208731
10
137.094700564672
20
-6.5344889392188676
42
0.4142135623732443
10
135.09470050730502
20
-8.534488996584864
10
135.0947004950512
20
-10.034487437991746
42
-0.41421362720550797
10
133.59470016302365
20
-11.534487437991716
10
16.261514379678381
20
-11.534461466091928
42
-0.4129866289514651
10
14.767800604958214
20
-10.034474638359203
10
14.767800622034974
20
-8.5344890434575191
42
0.4142135623730952
10
12.767800534470764
20
-6.5344890162914426
10
-64.882199435329099
20
-6.5344890162913805
42
0.41421356237327517
10
-66.882199492695349
20
-8.5344890736563919
10
-66.882199539604002
20
-10.001837914269595
42
-0.24275095177037298
10
-67.512823194333691
20
-11.224206400300021
42
0.24275095571518676
10
-67.943749358398975
20
-12.05949154769451
10
-67.943749435332435
20
-105.72814913500318
42
0.24275095528032206
0
LWPOLYLINE
5
110
100
AcDbEntity
8
0
100
AcDbPolyline
90
11
70
1
43
0.0
10
200.05050056466763
20
-71.2094927656496
42
-0.41421356237310025
10
200.55050056466771
20
-70.709492765649586
10
214.78125056466774
20
-70.7094927656496
42
-0.41421356237313667
10
215.28125056466774
20
-71.2094927656496
10
215.28125056466774
20
-84.209492765649628
42
-0.41421356237301177
10
214.78125056466774
20
-84.709492765649642
10
207.05050056466774
20
-84.7094927656496
10
207.05050056466774
20
-86.209492765649586
42
-0.41421356237299095
10
206.55050056466774
20
-86.709492765649628
10
200.55050056466771
20
-86.7094927656496
42
-0.41421356237314705
10
200.05050056466771
20
-86.209492765649586
0
LWPOLYLINE
5
111
100
AcDbEntity
8
0
100
AcDbPolyline
90
8
70
1
43
0.0
10
172.4187505646677
20
-52.159492765649603
10
172.4187505646677
20
-65.159492765649617
42
-0.41421356237304818
10
171.91875056466762
20
-65.659492765649688
10
158.91875056466762
20
-65.659492765649617
42
-0.41421356237310542
10
158.41875056466762
20
-65.159492765649617
10
158.41875056466762
20
-52.159492765649603
42
-0.4142135623730846
10
158.91875056466762
20
-51.659492765649617
10
171.91875056466762
20
-51.659492765649595
42
-0.41421356237316787
0
LWPOLYLINE
5
112
100
AcDbEntity
8
0
100
AcDbPolyline
90
8
70
1
43
0.0
10
187.4370005646677
20
-49.659492765649603
42
-0.4142135623730222
10
187.9370005646677
20
-50.159492765649603
10
187.93700056466773
20
-65.159492765649446
42
-0.41421356237310542
10
187.4370005646677
20
-65.659492765649532
10
181.4370005646677
20
-65.659492765649517
42
-0.41421356237316787
10
180.93700056466761
20
-65.159492765649517
10
180.9370005646677
20
-50.159492765649603
42
-0.41421356237300661
10
181.4370005646677
20
-49.659492765649603
0
LWPOLYLINE
5
113
100
AcDbEntity
8
0
100
AcDbPolyline
90
8
70
1
43
0.0
10
43.831250564667606
20
-14.059492765649615
10
43.831250564667606
20
-27.059492765649612
42
-0.41421356237307944
10
43.331250564667613
20
-27.559492765649637
10
30.331250564667602
20
-27.559492765649622
42
-0.4142135623730846
10
29.831250564667595
20
-27.059492765649612
10
29.831250564667613
20
-14.059492765649615
42
-0.41421356237308982
10
30.331250564667602
20
-13.559492765649628
10
43.331250564667613
20
-13.55949276564961
42
-0.41421356237311974
0
LWPOLYLINE
5
114
100
AcDbEntity
8
0
100
AcDbPolyline
90
8
70
1
43
0.0
10
67.931250564667621
20
-14.059492765649615
42
-0.41421356237309243
10
68.431250564667621
20
-13.559492765649603
10
81.431250564667593
20
-13.559492765649605
42
-0.41421356237309115
10
81.931250564667621
20
-14.059492765649615
10
81.931250564667621
20
-27.059492765649612
42
-0.41421356237310542
10
81.431250564667593
20
-27.559492765649619
10
68.431250564667621
20
-27.559492765649622
42
-0.41421356237309243
10
67.931250564667607
20
-27.059492765649612
0
LWPOLYLINE
5
115
100
AcDbEntity
8
0
100
AcDbPolyline
90
8
70
1
43
0.0
10
-8.2687494353324116
20
-14.059492765649626
42
-0.41421356237309115
10
-7.7687494353324027
20
-13.55949276564961
10
5.2312505646675964
20
-13.559492765649619
42
-0.4142135623730937
10
5.7312505646675946
20
-14.059492765649615
10
5.7312505646675937
20
-27.059492765649612
42
-0.41421356237309892
10
5.2312505646675964
20
-27.559492765649619
10
-7.7687494353324027
20
-27.559492765649619
42
-0.41421356237309631
10
-8.2687494353323991
20
-27.059492765649622
0
LWPOLYLINE
5
116
100
AcDbEntity
8
0
100
AcDbPolyline
90
8
70
1
43
0.0
10
49.381250564667603
20
-13.559492765649605
10
62.381250564667603
20
-13.559492765649605
42
-0.41421356237310542
10
62.88125056466761
20
-14.059492765649615
10
62.88125056466761
20
-27.059492765649612
42
-0.41421356237308982
10
62.381250564667603
20
-27.55949276564963
10
49.381250564667603
20
-27.559492765649622
42
-0.41421356237310025
10
48.881250564667596
20
-27.059492765649612
10
48.88125056466761
20
-14.059492765649615
42
-0.41421356237309115
0
LWPOLYLINE
5
117
100
AcDbEntity
8
0
100
AcDbPolyline
90
8
70
1
43
0.0
10
10.781250564667593
20
-27.059492765649612
10
10.781250564667593
20
-14.059492765649615
42
-0.41421356237308721
10
11.281250564667593
20
-13.559492765649619
10
24.281250564667602
20
-13.55949276564961
42
-0.41421356237308721
10
24.781250564667605
20
-14.059492765649615
10
24.781250564667605
20
-27.059492765649612
42
-0.4142135623730846
10
24.281250564667602
20
-27.559492765649622
10
11.281250564667593
20
-27.559492765649608
42
-0.41421356237309243
0
LWPOLYLINE
5
118
100
AcDbEntity
8
0
100
AcDbPolyline
90
8
70
1
43
0.0
10
-26.818749435332411
20
-27.559492765649622
42
-0.41421356237309503
10
-27.318749435332407
20
-27.059492765649622
10
-27.318749435332407
20
-14.059492765649626
42
-0.41421356237309503
10
-26.818749435332411
20
-13.559492765649626
10
-13.818749435332409
20
-13.559492765649619
42
-0.41421356237310281
10
-13.318749435332409
20
-14.059492765649619
10
-13.318749435332409
20
-27.059492765649615
42
-0.4142135623730937
10
-13.818749435332409
20
-27.559492765649619
0
LWPOLYLINE
5
119
100
AcDbEntity
8
0
100
AcDbPolyline
90
8
70
1
43
0.0
10
-46.368749435332425
20
-14.059492765649626
42
-0.41421356237309503
10
-45.868749435332425
20
-13.559492765649628
10
-32.868749435332411
20
-13.559492765649619
42
-0.41421356237308854
10
-32.368749435332411
20
-14.059492765649626
10
-32.368749435332411
20
-27.059492765649622
42
-0.41421356237309243
10
-32.868749435332411
20
-27.559492765649622
10
-45.868749435332425
20
-27.559492765649622
42
-0.41421356237309764
10
-46.368749435332418
20
-27.059492765649622
0
LWPOLYLINE
5
120
100
AcDbEntity
8
0
100
AcDbPolyline
90
8
70
1
43
0.0
10
-51.418749435332423
20
-14.059492765649626
10
-51.418749435332423
20
-27.059492765649622
42
-0.41421356237308721
10
-51.91874943533243
20
-27.559492765649622
10
-64.918749435332415
20
-27.559492765649619
42
-0.41421356237310542
10
-65.418749435332415
20
-27.059492765649622
10
-65.418749435332415
20
-14.059492765649626
42
-0.41421356237309631
10
-64.918749435332415
20
-13.559492765649626
10
-51.91874943533243
20
-13.559492765649619
42
-0.41421356237310542
0
LWPOLYLINE
5
121
100
AcDbEntity
8
0
100
AcDbPolyline
90
8
70
1
43
0.0
10
125.08125056466766
20
-27.059492765649612
10
125.08125056466766
20
-14.059492765649608
42
-0.41421356237311713
10
125.58125056466764
20
-13.559492765649605
10
138.58125056466764
20
-13.559492765649601
42
-0.41421356237309631
10
139.08125056466764
20
-14.059492765649608
10
139.08125056466758
20
-27.059492765649612
42
-0.41421356237309243
10
138.58125056466764
20
-27.559492765649573
10
125.58125056466764
20
-27.559492765649608
42
-0.41421356237305601
0
LWPOLYLINE
5
122
100
AcDbEntity
8
0
100
AcDbPolyline
90
8
70
1
43
0.0
10
100.98125056466765
20
-14.05949276564961
10
100.98125056466765
20
-27.059492765649612
42
-0.41421356237311324
10
100.48125056466762
20
-27.559492765649594
10
87.481250564667619
20
-27.559492765649619
42
-0.41421356237304302
10
86.981250564667633
20
-27.059492765649612
10
86.981250564667633
20
-14.059492765649615
42
-0.41421356237305862
10
87.481250564667619
20
-13.55949276564961
10
100.48125056466762
20
-13.559492765649605
42
-0.41421356237310414
0
LWPOLYLINE
5
123
100
AcDbEntity
8
0
100
AcDbPolyline
90
8
70
1
43
0.0
10
106.53125056466764
20
-27.559492765649619
42
-0.41421356237309503
10
106.03125056466767
20
-27.059492765649612
10
106.03125056466766
20
-14.05949276564961
42
-0.41421356237308593
10
106.53125056466764
20
-13.559492765649601
10
119.5312505646676
20
-13.559492765649601
42
-0.41421356237310281
10
120.03125056466759
20
-14.059492765649608
10
120.03125056466759
20
-27.059492765649612
42
-0.41421356237313667
10
119.5312505646676
20
-27.559492765649605
0
LWPOLYLINE
5
124
100
AcDbEntity
8
0
100
AcDbPolyline
90
8
70
1
43
0.0
10
176.68125056466766
20
-27.559492765649587
10
163.68125056466764
20
-27.559492765649605
42
-0.41421356237316265
10
163.18125056466758
20
-27.059492765649612
10
163.18125056466758
20
-14.059492765649606
42
-0.41421356237308721
10
163.68125056466764
20
-13.559492765649647
10
176.68125056466766
20
-13.559492765649601
42
-0.41421356237314316
10
177.18125056466766
20
-14.059492765649606
10
177.18125056466766
20
-27.059492765649612
42
-0.4142135623730378
0
LWPOLYLINE
5
125
100
AcDbEntity
8
0
100
AcDbPolyline
90
8
70
1
43
0.0
10
195.73125056466773
20
-13.559492765649599
10
182.7312505646677
20
-13.559492765649575
42
0.41421356237301959
10
182.2312505646677
20
-14.059492765649606
10
182.2312505646677
20
-27.059492765649612
42
0.41421356237312362
10
182.7312505646677
20
-27.559492765649594
10
195.73125056466773
20
-27.559492765649587
42
0.41421356237304041
10
196.23125056466773
20
-27.059492765649612
10
196.23125056466773
20
-14.059492765649606
42
0.41421356237314316
0
LWPOLYLINE
5
126
100
AcDbEntity
8
0
100
AcDbPolyline
90
8
70
1
43
0.0
10
144.63125056466762
20
-27.559492765649608
42
-0.41421356237304563
10
144.13125056466762
20
-27.059492765649612
10
144.1312505646676
20
-14.059492765649608
42
-0.41421356237310675
10
144.63125056466762
20
-13.559492765649599
10
157.63125056466762
20
-13.559492765649601
42
-0.4142135623730937
10
158.13125056466762
20
-14.059492765649606
10
158.13125056466762
20
-27.059492765649612
42
-0.41421356237309243
10
157.63125056466762
20
-27.559492765649608
0
LWPOLYLINE
5
127
100
AcDbEntity
8
0
100
AcDbPolyline
90
8
70
1
43
0.0
10
172.70625056466764
20
-46.109492765649605
10
172.7062505646677
20
-33.109492765649605
42
-0.41421356237300916
10
173.2062505646677
20
-32.609492765649605
10
186.2062505646677
20
-32.609492765649605
42
-0.41421356237312884
10
186.70625056466773
20
-33.109492765649605
10
186.70625056466773
20
-46.109492765649605
42
-0.4142135623730378
10
186.2062505646677
20
-46.609492765649591
10
173.2062505646677
20
-46.609492765649634
42
-0.41421356237307422
0
LWPOLYLINE
5
128
100
AcDbEntity
8
0
100
AcDbPolyline
90
8
70
1
43
0.0
10
153.65625056466763
20
-46.109492765649605
10
153.65625056466763
20
-33.109492765649605
42
-0.41421356237308982
10
154.15625056466763
20
-32.609492765649613
10
167.15625056466763
20
-32.609492765649584
42
-0.41421356237310281
10
167.65625056466763
20
-33.109492765649605
10
167.65625056466763
20
-46.109492765649605
42
-0.41421356237299095
10
167.15625056466763
20
-46.609492765649634
10
154.15625056466763
20
-46.60949276564962
42
-0.41421356237307944
0
LWPOLYLINE
5
129
100
AcDbEntity
8
0
100
AcDbPolyline
90
8
70
1
43
0.0
10
90.956250564667585
20
-32.609492765649605
42
-0.41421356237307683
10
91.456250564667627
20
-33.109492765649613
10
91.456250564667627
20
-46.109492765649605
42
-0.41421356237308982
10
90.956250564667585
20
-46.609492765649605
10
77.956250564667627
20
-46.60949276564962
42
-0.41421356237313145
10
77.456250564667627
20
-46.10949276564962
10
77.456250564667627
20
-33.109492765649613
42
-0.41421356237309503
10
77.956250564667627
20
-32.609492765649598
0
LWPOLYLINE
5
130
100
AcDbEntity
8
0
100
AcDbPolyline
90
8
70
1
43
0.0
10
135.10625056466765
20
-32.60949276564962
10
148.10625056466762
20
-32.609492765649598
42
-0.41421356237306384
10
148.60625056466768
20
-33.109492765649605
10
148.60625056466768
20
-46.109492765649605
42
-0.41421356237310542
10
148.10625056466762
20
-46.60949276564962
10
135.10625056466765
20
-46.60949276564962
42
-0.41421356237305862
10
134.60625056466765
20
-46.109492765649605
10
134.60625056466765
20
-33.109492765649613
42
-0.41421356237311846
0
LWPOLYLINE
5
131
100
AcDbEntity
8
0
100
AcDbPolyline
90
8
70
1
43
0.0
10
129.55625056466758
20
-46.109492765649605
42
-0.41421356237310025
10
129.05625056466764
20
-46.609492765649591
10
116.05625056466765
20
-46.60949276564962
42
-0.41421356237311063
10
115.55625056466766
20
-46.109492765649605
10
115.55625056466766
20
-33.109492765649613
42
-0.41421356237309764
10
116.05625056466765
20
-32.60949276564962
10
129.05625056466764
20
-32.609492765649605
42
-0.41421356237310281
10
129.55625056466766
20
-33.109492765649613
0
LWPOLYLINE
5
132
100
AcDbEntity
8
0
100
AcDbPolyline
90
8
70
1
43
0.0
10
58.406250564667594
20
-46.10949276564962
10
58.406250564667623
20
-33.109492765649613
42
-0.41421356237309503
10
58.906250564667616
20
-32.60949276564962
10
71.906250564667602
20
-32.609492765649613
42
-0.41421356237310542
10
72.40625056466763
20
-33.109492765649613
10
72.40625056466763
20
-46.10949276564962
42
-0.41421356237307944
10
71.906250564667602
20
-46.60949276564962
10
58.906250564667616
20
-46.60949276564962
42
-0.41421356237311063
0
LWPOLYLINE
5
133
100
AcDbEntity
8
0
100
AcDbPolyline
90
8
70
1
43
0.0
10
139.36875056466758
20
-65.159492765649617
10
139.36875056466764
20
-52.159492765649603
42
-0.41421356237310542
10
139.86875056466758
20
-51.659492765649659
10
152.86875056466758
20
-51.659492765649603
42
-0.41421356237305862
10
153.36875056466764
20
-52.159492765649603
10
153.36875056466764
20
-65.159492765649617
42
-0.41421356237310542
10
152.86875056466758
20
-65.659492765649631
10
139.86875056466758
20
-65.659492765649617
42
-0.4142135623730534
0
LWPOLYLINE
5
134
100
AcDbEntity
8
0
100
AcDbPolyline
90
8
70
1
43
0.0
10
134.31875056466762
20
-65.159492765649617
42
-0.41421356237309503
10
133.8187505646676
20
-65.659492765649617
10
120.81875056466758
20
-65.659492765649617
42
-0.41421356237310542
10
120.3187505646676
20
-65.159492765649617
10
120.3187505646676
20
-52.159492765649603
42
-0.41421356237306384
10
120.81875056466758
20
-51.659492765649595
10
133.8187505646676
20
-51.659492765649603
42
-0.41421356237310025
10
134.31875056466762
20
-52.159492765649603
0
LWPOLYLINE
5
135
100
AcDbEntity
8
0
100
AcDbPolyline
90
8
70
1
43
0.0
10
101.76875056466764
20
-65.659492765649631
42
-0.41421356237311063
10
101.26875056466758
20
-65.159492765649617
10
101.26875056466758
20
-52.159492765649624
42
-0.41421356237310025
10
101.76875056466764
20
-51.659492765649624
10
114.76875056466766
20
-51.659492765649603
42
-0.41421356237310025
10
115.26875056466764
20
-52.159492765649603
10
115.26875056466764
20
-65.159492765649617
42
-0.41421356237307944
10
114.76875056466766
20
-65.659492765649617
0
LWPOLYLINE
5
136
100
AcDbEntity
8
0
100
AcDbPolyline
90
8
70
1
43
0.0
10
96.506250564667639
20
-46.109492765649605
10
96.506250564667639
20
-33.109492765649613
42
-0.41421356237311846
10
97.006250564667624
20
-32.60949276564962
10
110.0062505646676
20
-32.609492765649605
42
-0.41421356237310281
10
110.50625056466758
20
-33.109492765649613
10
110.50625056466758
20
-46.109492765649605
42
-0.41421356237314183
10
110.0062505646676
20
-46.609492765649605
10
97.006250564667624
20
-46.60949276564962
42
-0.41421356237305862
0
LWPOLYLINE
5
137
100
AcDbEntity
8
0
100
AcDbPolyline
90
8
70
1
43
0.0
10
-17.293749435332408
20
-46.60949276564962
42
-0.41421356237309892
10
-17.793749435332412
20
-46.10949276564962
10
-17.793749435332408
20
-33.10949276564962
42
-0.41421356237309631
10
-17.293749435332408
20
-32.60949276564962
10
-4.2937494353324004
20
-32.60949276564962
42
-0.41421356237309598
10
-3.7937494353324008
20
-33.10949276564962
10
-3.7937494353324004
20
-46.10949276564962
42
-0.4142135623730947
10
-4.2937494353324004
20
-46.60949276564962
0
LWPOLYLINE
5
138
100
AcDbEntity
8
0
100
AcDbPolyline
90
8
70
1
43
0.0
10
39.356250564667604
20
-46.10949276564962
10
39.356250564667612
20
-33.109492765649613
42
-0.41421356237311063
10
39.856250564667604
20
-32.60949276564962
10
52.856250564667626
20
-32.609492765649613
42
-0.41421356237308721
10
53.356250564667619
20
-33.109492765649613
10
53.356250564667619
20
-46.10949276564962
42
-0.41421356237309503
10
52.856250564667626
20
-46.60949276564962
10
39.856250564667604
20
-46.60949276564962
42
-0.41421356237309503
0
LWPOLYLINE
5
139
100
AcDbEntity
8
0
100
AcDbPolyline
90
8
70
1
43
0.0
10
33.806250564667614
20
-32.609492765649605
42
-0.41421356237309503
10
34.306250564667614
20
-33.109492765649613
10
34.306250564667614
20
-46.10949276564962
42
-0.41421356237307161
10
33.806250564667614
20
-46.60949276564962
10
20.8062505646676
20
-46.60949276564962
42
-0.41421356237308204
10
20.306250564667579
20
-46.109492765649627
10
20.306250564667604
20
-33.109492765649613
42
-0.41421356237310281
10
20.8062505646676
20
-32.60949276564962
0
LWPOLYLINE
5
140
100
AcDbEntity
8
0
100
AcDbPolyline
90
8
70
1
43
0.0
10
15.256250564667619
20
-46.10949276564962
42
-0.41421356237311063
10
14.75625056466761
20
-46.609492765649634
10
1.756250564667603
20
-46.60949276564962
42
-0.4142135623730952
10
1.2562505646676017
20
-46.10949276564962
10
1.2562505646676037
20
-33.10949276564962
42
-0.41421356237309587
10
1.756250564667603
20
-32.60949276564962
10
14.75625056466761
20
-32.609492765649613
42
-0.41421356237309243
10
15.256250564667621
20
-33.10949276564962
0
LWPOLYLINE
5
141
100
AcDbEntity
8
0
100
AcDbPolyline
90
8
70
1
43
0.0
10
-36.843749435332413
20
-33.10949276564962
42
-0.41421356237310802
10
-36.343749435332406
20
-32.60949276564962
10
-23.343749435332409
20
-32.60949276564962
42
-0.41421356237309503
10
-22.843749435332409
20
-33.10949276564962
10
-22.843749435332402
20
-46.10949276564962
42
-0.41421356237309243
10
-23.343749435332409
20
-46.609492765649634
10
-36.343749435332406
20
-46.60949276564962
42
-0.41421356237310025
10
-36.843749435332413
20
-46.10949276564962
0
LWPOLYLINE
5
142
100
AcDbEntity
8
0
100
AcDbPolyline
90
8
70
1
43
0.0
10
-47.156249435332413
20
-46.60949276564962
10
-60.156249435332406
20
-46.60949276564962
42
-0.41421356237309503
10
-60.656249435332406
20
-46.10949276564962
10
-60.656249435332406
20
-33.109492765649627
42
-0.41421356237308982
10
-60.156249435332406
20
-32.60949276564962
10
-47.156249435332413
20
-32.609492765649641
42
-0.4142135623730846
10
-46.65624943533242
20
-33.109492765649627
10
-46.65624943533242
20
-46.10949276564962
42
-0.41421356237311063
0
LWPOLYLINE
5
143
100
AcDbEntity
8
0
100
AcDbPolyline
90
8
70
1
43
0.0
10
-62.537499435332428
20
-65.659492765649631
42
-0.4142135623730846
10
-63.037499435332421
20
-65.159492765649645
10
-63.037499435332421
20
-52.159492765649624
42
-0.41421356237309503
10
-62.537499435332428
20
-51.659492765649624
10
-44.774999435332404
20
-51.659492765649624
42
-0.41421356237309503
10
-44.274999435332411
20
-52.159492765649624
10
-44.274999435332411
20
-65.159492765649645
42
-0.41421356237310542
10
-44.774999435332404
20
-65.659492765649631
0
LWPOLYLINE
5
144
100
AcDbEntity
8
0
100
AcDbPolyline
90
8
70
1
43
0.0
10
-32.08124943533241
20
-65.159492765649645
10
-32.08124943533241
20
-52.159492765649624
42
-0.41421356237307683
10
-31.58124943533241
20
-51.659492765649624
10
-18.58124943533241
20
-51.659492765649624
42
-0.41421356237310153
10
-18.081249435332417
20
-52.159492765649624
10
-18.08124943533241
20
-65.159492765649645
42
-0.41421356237309764
10
-18.58124943533241
20
-65.659492765649631
10
-31.58124943533241
20
-65.659492765649631
42
-0.41421356237309764
0
LWPOLYLINE
5
145
100
AcDbEntity
8
0
100
AcDbPolyline
90
8
70
1
43
0.0
10
39.068750564667617
20
-65.159492765649617
42
-0.41421356237308982
10
38.56875056466761
20
-65.659492765649631
10
25.568750564667603
20
-65.659492765649631
42
-0.41421356237311324
10
25.06875056466761
20
-65.159492765649617
10
25.06875056466761
20
-52.159492765649624
42
-0.41421356237308982
10
25.568750564667603
20
-51.659492765649624
10
38.56875056466761
20
-51.659492765649603
42
-0.41421356237310542
10
39.06875056466761
20
-52.159492765649624
0
LWPOLYLINE
5
146
100
AcDbEntity
8
0
100
AcDbPolyline
90
8
70
1
43
0.0
10
6.018750564667612
20
-52.159492765649624
42
-0.41421356237309309
10
6.5187505646676058
20
-51.659492765649624
10
19.518750564667613
20
-51.659492765649603
42
-0.41421356237309115
10
20.01875056466762
20
-52.159492765649624
10
20.018750564667613
20
-65.159492765649617
42
-0.41421356237312362
10
19.518750564667613
20
-65.659492765649631
10
6.5187505646676058
20
-65.659492765649617
42
-0.41421356237309764
10
6.0187505646676032
20
-65.159492765649617
0
LWPOLYLINE
5
147
100
AcDbEntity
8
0
100
AcDbPolyline
90
8
70
1
43
0.0
10
0.96875056466759413
20
-52.159492765649624
10
0.96875056466759413
20
-65.159492765649617
42
-0.41421356237309759
10
0.46875056466759268
20
-65.659492765649617
10
-12.531249435332406
20
-65.659492765649631
42
-0.41421356237309764
10
-13.031249435332409
20
-65.159492765649645
10
-13.031249435332404
20
-52.159492765649624
42
-0.41421356237307422
10
-12.531249435332406
20
-51.659492765649624
10
0.46875056466759263
20
-51.659492765649624
42
-0.41421356237309814
0
LWPOLYLINE
5
148
100
AcDbEntity
8
0
100
AcDbPolyline
90
8
70
1
43
0.0
10
44.118750564667614
20
-52.159492765649624
42
-0.41421356237312623
10
44.618750564667607
20
-51.659492765649603
10
57.618750564667621
20
-51.659492765649603
42
-0.41421356237313667
10
58.118750564667614
20
-52.159492765649624
10
58.118750564667614
20
-65.159492765649617
42
-0.41421356237311585
10
57.618750564667621
20
-65.659492765649631
10
44.618750564667607
20
-65.659492765649631
42
-0.41421356237314183
10
44.118750564667614
20
-65.159492765649617
0
LWPOLYLINE
5
149
100
AcDbEntity
8
0
100
AcDbPolyline
90
8
70
1
43
0.0
10
77.168750564667619
20
-52.159492765649624
10
77.168750564667619
20
-65.159492765649617
42
-0.41421356237312623
10
76.668750564667619
20
-65.659492765649631
10
63.668750564667647
20
-65.659492765649631
42
-0.41421356237314183
10
63.168750564667626
20
-65.159492765649617
10
63.168750564667633
20
-52.159492765649624
42
-0.41421356237311585
10
63.668750564667647
20
-51.659492765649603
10
76.668750564667619
20
-51.659492765649603
42
-0.41421356237312101
0
LWPOLYLINE
5
150
100
AcDbEntity
8
0
100
AcDbPolyline
90
8
70
1
43
0.0
10
96.218750564667644
20
-52.159492765649624
10
96.218750564667644
20
-65.159492765649617
42
-0.41421356237309503
10
95.718750564667644
20
-65.659492765649617
10
82.71875056466763
20
-65.659492765649631
42
-0.41421356237309503
10
82.218750564667602
20
-65.159492765649617
10
82.218750564667602
20
-52.159492765649624
42
-0.41421356237311585
10
82.71875056466763
20
-51.659492765649624
10
95.718750564667644
20
-51.659492765649603
42
-0.41421356237310542
0
LWPOLYLINE
5
151
100
AcDbEntity
8
0
100
AcDbPolyline
90
8
70
1
43
0.0
10
-22.056249435332408
20
-70.709492765649628
10
-9.056249435332397
20
-70.709492765649628
42
-0.41421356237309243
10
-8.5562494353323952
20
-71.209492765649628
10
-8.5562494353323899
20
-84.209492765649628
42
-0.41421356237307294
10
-9.056249435332397
20
-84.709492765649642
10
-22.056249435332408
20
-84.709492765649642
42
-0.41421356237308204
10
-22.55624943533239
20
-84.209492765649628
10
-22.556249435332397
20
-71.209492765649628
42
-0.41421356237308721
0
LWPOLYLINE
5
152
100
AcDbEntity
8
0
100
AcDbPolyline
90
8
70
1
43
0.0
10
-3.5062494353323803
20
-84.209492765649628
10
-3.5062494353323888
20
-71.209492765649628
42
-0.4142135623730937
10
-3.0062494353323914
20
-70.709492765649628
10
9.9937505646676073
20
-70.709492765649628
42
-0.4142135623730957
10
10.493750564667605
20
-71.209492765649628
10
10.493750564667614
20
-84.209492765649628
42
-0.41421356237307227
10
9.9937505646676073
20
-84.709492765649642
10
-3.0062494353323914
20
-84.709492765649642
42
-0.41421356237308493
0
LWPOLYLINE
5
153
100
AcDbEntity
8
0
100
AcDbPolyline
90
8
70
1
43
0.0
10
86.193750564667639
20
-70.709492765649628
42
-0.41421356237310025
10
86.693750564667624
20
-71.209492765649628
10
86.693750564667624
20
-84.209492765649628
42
-0.4142135623730846
10
86.193750564667639
20
-84.709492765649642
10
73.19375056466761
20
-84.709492765649642
42
-0.41421356237312101
10
72.693750564667582
20
-84.209492765649628
10
72.693750564667582
20
-71.209492765649628
42
-0.41421356237307944
10
73.19375056466761
20
-70.709492765649628
0
LWPOLYLINE
5
154
100
AcDbEntity
8
0
100
AcDbPolyline
90
8
70
1
43
0.0
10
111.29375056466765
20
-70.709492765649628
10
124.29375056466766
20
-70.7094927656496
42
-0.41421356237311063
10
124.79375056466765
20
-71.2094927656496
10
124.79375056466765
20
-84.209492765649628
42
-0.4142135623730846
10
124.29375056466766
20
-84.709492765649642
10
111.29375056466765
20
-84.709492765649642
42
-0.41421356237307422
10
110.79375056466762
20
-84.209492765649628
10
110.79375056466762
20
-71.2094927656496
42
-0.41421356237313145
0
LWPOLYLINE
5
155
100
AcDbEntity
8
0
100
AcDbPolyline
90
8
70
1
43
0.0
10
148.89375056466758
20
-84.209492765649628
10
148.89375056466758
20
-71.2094927656496
42
-0.41421356237313667
10
149.39375056466758
20
-70.709492765649657
10
162.39375056466764
20
-70.7094927656496
42
-0.4142135623730846
10
162.89375056466767
20
-71.2094927656496
10
162.89375056466764
20
-84.209492765649628
42
-0.41421356237301177
10
162.39375056466764
20
-84.709492765649642
10
149.39375056466758
20
-84.709492765649642
42
-0.41421356237304302
0
LWPOLYLINE
5
156
100
AcDbEntity
8
0
100
AcDbPolyline
90
8
70
1
43
0.0
10
16.043750564667597
20
-70.709492765649628
10
29.043750564667601
20
-70.709492765649628
42
-0.41421356237307683
10
29.543750564667612
20
-71.209492765649628
10
29.543750564667612
20
-84.209492765649628
42
-0.41421356237307422
10
29.043750564667601
20
-84.709492765649642
10
16.043750564667597
20
-84.709492765649642
42
-0.41421356237306384
10
15.543750564667587
20
-84.209492765649628
10
15.543750564667606
20
-71.209492765649628
42
-0.41421356237309243
0
LWPOLYLINE
5
157
100
AcDbEntity
8
0
100
AcDbPolyline
90
8
70
1
43
0.0
10
35.093750564667602
20
-84.709492765649642
42
-0.41421356237307161
10
34.593750564667602
20
-84.209492765649628
10
34.593750564667602
20
-71.209492765649628
42
-0.41421356237307683
10
35.093750564667602
20
-70.709492765649628
10
48.093750564667594
20
-70.709492765649628
42
-0.41421356237311063
10
48.593750564667616
20
-71.209492765649628
10
48.593750564667602
20
-84.209492765649628
42
-0.41421356237312101
10
48.093750564667594
20
-84.709492765649628
0
LWPOLYLINE
5
158
100
AcDbEntity
8
0
100
AcDbPolyline
90
8
70
1
43
0.0
10
53.64375056466762
20
-71.209492765649628
42
-0.41421356237311063
10
54.143750564667634
20
-70.709492765649642
10
67.143750564667613
20
-70.709492765649628
42
-0.41421356237309503
10
67.643750564667641
20
-71.209492765649628
10
67.643750564667613
20
-84.209492765649628
42
-0.41421356237313145
10
67.143750564667613
20
-84.709492765649642
10
54.143750564667634
20
-84.709492765649642
42
-0.41421356237306384
10
53.643750564667613
20
-84.209492765649628
0
LWPOLYLINE
5
159
100
AcDbEntity
8
0
100
AcDbPolyline
90
8
70
1
43
0.0
10
92.243750564667621
20
-70.709492765649628
10
105.24375056466766
20
-70.709492765649628
42
-0.41421356237305862
10
105.74375056466765
20
-71.209492765649628
10
105.74375056466765
20
-84.209492765649628
42
-0.41421356237314705
10
105.24375056466766
20
-84.709492765649642
10
92.243750564667621
20
-84.709492765649642
42
-0.41421356237311585
10
91.743750564667579
20
-84.209492765649628
10
91.743750564667593
20
-71.209492765649628
42
-0.4142135623730534
0
LWPOLYLINE
5
160
100
AcDbEntity
8
0
100
AcDbPolyline
90
8
70
1
43
0.0
10
129.84375056466757
20
-84.209492765649628
10
129.84375056466757
20
-71.2094927656496
42
-0.41421356237313667
10
130.34375056466757
20
-70.709492765649657
10
143.34375056466763
20
-70.7094927656496
42
-0.41421356237307944
10
143.84375056466763
20
-71.2094927656496
10
143.84375056466763
20
-84.209492765649628
42
-0.4142135623730534
10
143.34375056466763
20
-84.709492765649642
10
130.34375056466757
20
-84.709492765649642
42
-0.41421356237304302
0
LWPOLYLINE
5
161
100
AcDbEntity
8
0
100
AcDbPolyline
90
8
70
1
43
0.0
10
14.2812505646676
20
-89.259492765649625
42
-0.41421356237311585
10
14.781250564667587
20
-88.75949276564964
10
20.781250564667602
20
-88.75949276564964
42
-0.41421356237310025
10
21.281250564667587
20
-89.259492765649625
10
21.281250564667587
20
-103.25949276564958
42
-0.41421356237310542
10
20.781250564667602
20
-103.7594927656496
10
14.781250564667587
20
-103.7594927656496
42
-0.41421356237312101
10
14.281250564667607
20
-103.25949276564967
0
LWPOLYLINE
5
162
100
AcDbEntity
8
0
100
AcDbPolyline
90
8
70
1
43
0.0
10
-36.843749435332391
20
-103.25949276564964
10
-36.843749435332398
20
-90.259492765649583
42
-0.41421356237312101
10
-36.343749435332406
20
-89.759492765649625
10
-23.343749435332409
20
-89.759492765649625
42
-0.41421356237310281
10
-22.843749435332409
20
-90.259492765649583
10
-22.843749435332402
20
-103.25949276564964
42
-0.41421356237307422
10
-23.343749435332409
20
-103.75949276564965
10
-36.343749435332398
20
-103.75949276564965
42
-0.4142135623730846
0
LWPOLYLINE
5
163
100
AcDbEntity
8
0
100
AcDbPolyline
90
8
70
1
43
0.0
10
143.84375056466763
20
-103.25949276564958
42
-0.41421356237307422
10
143.34375056466763
20
-103.7594927656496
10
130.34375056466757
20
-103.7594927656496
42
-0.41421356237306384
10
129.84375056466757
20
-103.25949276564958
10
129.84375056466757
20
-90.259492765649583
42
-0.4142135623730534
10
130.34375056466757
20
-89.759492765649597
10
143.34375056466763
20
-89.759492765649597
42
-0.41421356237304302
10
143.84375056466763
20
-90.259492765649583
0
LWPOLYLINE
5
164
100
AcDbEntity
8
0
100
AcDbPolyline
90
8
70
1
43
0.0
10
153.65625056466763
20
-103.25949276564958
10
153.65625056466763
20
-90.259492765649583
42
-0.41421356237304302
10
154.15625056466763
20
-89.759492765649597
10
167.15625056466763
20
-89.759492765649597
42
-0.41421356237315748
10
167.65625056466772
20
-90.259492765649583
10
167.65625056466763
20
-103.25949276564958
42
-0.41421356237313667
10
167.15625056466763
20
-103.7594927656496
10
154.15625056466763
20
-103.7594927656496
42
-0.41421356237307422
0
LWPOLYLINE
5
165
100
AcDbEntity
8
0
100
AcDbPolyline
90
8
70
1
43
0.0
10
116.53125056466764
20
-89.259492765649625
10
116.53125056466764
20
-103.25949276564958
42
-0.41421356237312623
10
116.03125056466766
20
-103.7594927656496
10
110.03125056466759
20
-103.7594927656496
42
-0.41421356237310542
10
109.5312505646676
20
-103.25949276564958
10
109.5312505646676
20
-89.259492765649625
42
-0.41421356237315748
10
110.03125056466759
20
-88.759492765649583
10
116.03125056466766
20
-88.759492765649583
42
-0.41421356237309503
0
LWPOLYLINE
5
166
100
AcDbEntity
8
0
100
AcDbPolyline
90
8
70
1
43
0.0
10
0.46875056466760162
20
-103.75949276564965
10
-12.531249435332395
20
-103.75949276564965
42
-0.4142135623730846
10
-13.031249435332386
20
-103.25949276564964
10
-13.031249435332404
20
-90.259492765649583
42
-0.41421356237305862
10
-12.531249435332395
20
-89.759492765649597
10
0.46875056466760157
20
-89.759492765649625
42
-0.41421356237311435
10
0.96875056466758847
20
-90.259492765649583
10
0.96875056466760812
20
-103.25949276564964
42
-0.41421356237307344
0
CIRCLE
5
167
100
AcDbEntity
8
0
100
AcDbCircle
10
-175.91970046733448
20
-109.25315159912223
30
7.0256356719448657e-16
40
1.2500000000003195
210
3.1799956346592673e-24
220
0
230
-1
0
CIRCLE
5
168
100
AcDbEntity
8
0
100
AcDbCircle
10
-12.767800467332401
20
-109.25315167598491
30
7.1991028313192467e-16
40
1.25
210
3.1799956346600799e-24
220
0
230
-1
0
CIRCLE
5
169
100
AcDbEntity
8
0
100
AcDbCircle
10
-214.7447004673337
20
-109.25315159909306
30
4.9266153546612777e-15
40
1.25
210
3.1799953388372411e-24
220
0
230
-1
0
CIRCLE
5
170
100
AcDbEntity
8
0
100
AcDbCircle
10
26.05719943533034
20
-8.5344890736274053
30
8.6736173798841957e-18
40
1.2500000000002798
210
-6.1629758220377746e-33
220
0
230
-1
0
CIRCLE
5
171
100
AcDbEntity
8
0
100
AcDbCircle
10
-175.91970056467102
20
-8.5344889965558437
30
1.7347234759765902e-17
40
1.2500000000003195
210
-1.2325951644075158e-32
220
0
230
-1
0
CIRCLE
5
172
100
AcDbEntity
8
0
100
AcDbCircle
10
26.057199532667518
20
-109.25315167601394
30
7.1123654228871014e-16
40
1.2500000000002798
210
3.1799956346593687e-24
220
0
230
-1
0
CIRCLE
5
173
100
AcDbEntity
8
0
100
AcDbCircle
10
64.882199540217272
20
-109.25315167616289
30
-3.4954680104183842e-15
40
1.25
210
3.1799957332676926e-24
220
0
230
-1
0
CIRCLE
5
174
100
AcDbEntity
8
0
100
AcDbCircle
10
64.882199435330321
20
-8.5344890736563919
30
8.6736173798848351e-18
40
1.25
210
-1.2325951644078307e-32
220
0
230
-1
0
CIRCLE
5
175
100
AcDbEntity
8
0
100
AcDbCircle
10
-214.74470056467098
20
-8.5344889965858677
30
8.6736173798813869e-18
40
1.25
210
-1.2325951644078307e-32
220
0
230
-1
0
CIRCLE
5
176
100
AcDbEntity
8
0
100
AcDbCircle
10
-12.767800564669669
20
-8.5344890736564274
30
8.6736173798838783e-18
40
1.25
210
-1.2325951644078307e-32
220
0
230
-1
0
CIRCLE
5
177
100
AcDbEntity
8
0
100
AcDbCircle
10
-137.09470046733443
20
-109.25315159927136
30
7.1991385486447625e-16
40
1.25
210
3.1799956346600799e-24
220
0
230
-1
0
CIRCLE
5
178
100
AcDbEntity
8
0
100
AcDbCircle
10
41.749999435332384
20
-39.609492765656093
30
8.6736173798845501e-18
40
2.5
210
-1.2325951644078307e-32
220
0
230
-1
0
CIRCLE
5
179
100
AcDbEntity
8
0
100
AcDbCircle
10
-137.094700564671
20
-8.534488996584864
30
8.6736173798823422e-18
40
1.25
210
-1.2325951644078307e-32
220
0
230
-1
0
ENDSEC
0
SECTION
2
OBJECTS
0
DICTIONARY
5
C
100
AcDbDictionary
3
ACAD_GROUP
350
D
3
ACAD_MLINESTYLE
350
17
0
DICTIONARY
5
D
100
AcDbDictionary
0
DICTIONARY
5
1A
330
C
100
AcDbDictionary
0
DICTIONARY
5
17
100
AcDbDictionary
0
ENDSEC
0
EOF
